<svg width="330" height="46" viewBox="0 0 330 46" fill="none" xmlns="http://www.w3.org/2000/svg">
<path d="M0.10498 2.08375H8.78095L17.9443 24.6301H18.3343L27.4976 2.08375H36.1736V35.641H29.3498V13.7993H29.0736L20.4626 35.4772H15.816L7.20498 13.7174H6.92878V35.641H0.10498V2.08375Z" fill="#494949"/>
<path d="M48.956 36.1162C47.3638 36.1162 45.9449 35.8377 44.6993 35.2806C43.4537 34.7125 42.468 33.8769 41.7423 32.7736C41.0274 31.6594 40.67 30.2721 40.67 28.6117C40.67 27.2135 40.9245 26.0392 41.4336 25.0889C41.9427 24.1385 42.6359 23.3738 43.5133 22.7949C44.3906 22.2159 45.3871 21.779 46.5027 21.4841C47.6292 21.1891 48.8098 20.9816 50.0446 20.8614C51.496 20.7085 52.6658 20.5665 53.554 20.4354C54.4422 20.2934 55.0866 20.0858 55.4874 19.8128C55.8882 19.5397 56.0885 19.1355 56.0885 18.6002V18.5019C56.0885 17.4642 55.7636 16.6613 55.1137 16.0933C54.4747 15.5252 53.5648 15.2412 52.3842 15.2412C51.1386 15.2412 50.1475 15.5198 49.411 16.0769C48.6744 16.6231 48.187 17.3112 47.9487 18.1414L41.5473 17.6171C41.8723 16.0878 42.5113 14.766 43.4645 13.6518C44.4177 12.5267 45.647 11.6637 47.1526 11.0629C48.669 10.4512 50.4237 10.1454 52.4167 10.1454C53.8031 10.1454 55.13 10.3092 56.3972 10.6369C57.6753 10.9646 58.8072 11.4726 59.7929 12.1608C60.7894 12.849 61.5746 13.7338 62.1487 14.8152C62.7228 15.8857 63.0098 17.1692 63.0098 18.6658V35.641H56.446V32.151H56.251C55.8502 32.9375 55.3141 33.6311 54.6425 34.2319C53.971 34.8218 53.1641 35.286 52.2217 35.6247C51.2794 35.9524 50.1908 36.1162 48.956 36.1162ZM50.9382 31.2989C51.9563 31.2989 52.8554 31.0968 53.6352 30.6927C54.4151 30.2776 55.0271 29.7205 55.4711 29.0213C55.9152 28.3222 56.1373 27.5303 56.1373 26.6455V23.9746C55.9206 24.1167 55.6228 24.2477 55.2437 24.3679C54.8754 24.4771 54.4584 24.5809 53.9927 24.6792C53.5269 24.7666 53.0611 24.8485 52.5954 24.925C52.1296 24.9905 51.7072 25.0506 51.3281 25.1052C50.5158 25.2254 49.8063 25.4166 49.1997 25.6787C48.5932 25.9409 48.122 26.2959 47.7862 26.7438C47.4505 27.1807 47.2826 27.7269 47.2826 28.3823C47.2826 29.3327 47.6238 30.0591 48.3062 30.5616C48.9994 31.0531 49.8767 31.2989 50.9382 31.2989Z" fill="#494949"/>
<path d="M81.6534 10.4731V15.7164H66.6248V10.4731H81.6534ZM70.0367 4.44325H76.958V27.9071C76.958 28.5516 77.0555 29.0541 77.2504 29.4146C77.4454 29.7642 77.7162 30.0099 78.0628 30.1519C78.4202 30.2939 78.8318 30.3649 79.2976 30.3649C79.6225 30.3649 79.9474 30.3376 80.2724 30.283C80.5973 30.2175 80.8465 30.1683 81.0198 30.1356L82.1083 35.3297C81.7617 35.439 81.2743 35.5646 80.6461 35.7066C80.0179 35.8595 79.2542 35.9524 78.3552 35.9851C76.6872 36.0507 75.2249 35.8268 73.9685 35.3133C72.7229 34.7999 71.7535 34.0025 71.0603 32.9211C70.3671 31.8396 70.0259 30.4742 70.0367 28.8247V4.44325Z" fill="#494949"/>
<path d="M93.6194 21.0908V35.641H86.6981V2.08375H93.4244V14.9135H93.7169C94.2801 13.4279 95.19 12.2645 96.4464 11.4234C97.7029 10.5714 99.2788 10.1454 101.174 10.1454C102.907 10.1454 104.418 10.5277 105.707 11.2923C107.007 12.0461 108.014 13.133 108.729 14.553C109.455 15.9622 109.812 17.6499 109.802 19.6161V35.641H102.88V20.8614C102.891 19.3103 102.501 18.1032 101.71 17.2402C100.931 16.3773 99.8366 15.9458 98.4286 15.9458C97.4862 15.9458 96.6522 16.1479 95.9265 16.5521C95.2116 16.9562 94.6484 17.5461 94.2368 18.3217C93.836 19.0863 93.6302 20.0094 93.6194 21.0908Z" fill="#494949"/>
<path d="M125.967 2.08375H134.643L143.807 24.6301H144.197L153.36 2.08375H162.036V35.641H155.212V13.7993H154.936L146.325 35.4772H141.678L133.067 13.7174H132.791V35.641H125.967V2.08375Z" fill="#494949"/>
<path d="M178.978 36.1326C176.454 36.1326 174.272 35.5919 172.43 34.5105C170.6 33.4181 169.186 31.8997 168.19 29.9553C167.193 28 166.695 25.7333 166.695 23.1554C166.695 20.5556 167.193 18.2834 168.19 16.339C169.186 14.3837 170.6 12.8653 172.43 11.7839C174.272 10.6915 176.454 10.1454 178.978 10.1454C181.501 10.1454 183.679 10.6915 185.509 11.7839C187.35 12.8653 188.769 14.3837 189.766 16.339C190.762 18.2834 191.261 20.5556 191.261 23.1554C191.261 25.7333 190.762 28 189.766 29.9553C188.769 31.8997 187.35 33.4181 185.509 34.5105C183.679 35.5919 181.501 36.1326 178.978 36.1326ZM179.01 30.7254C180.158 30.7254 181.117 30.3977 181.886 29.7423C182.655 29.076 183.235 28.1693 183.624 27.0223C184.025 25.8754 184.226 24.57 184.226 23.1062C184.226 21.6425 184.025 20.3371 183.624 19.1901C183.235 18.0431 182.655 17.1365 181.886 16.4701C181.117 15.8038 180.158 15.4706 179.01 15.4706C177.851 15.4706 176.876 15.8038 176.086 16.4701C175.306 17.1365 174.716 18.0431 174.315 19.1901C173.925 20.3371 173.73 21.6425 173.73 23.1062C173.73 24.57 173.925 25.8754 174.315 27.0223C174.716 28.1693 175.306 29.076 176.086 29.7423C176.876 30.3977 177.851 30.7254 179.01 30.7254Z" fill="#494949"/>
<path d="M204.957 36.0507C203.061 36.0507 201.345 35.5591 199.807 34.576C198.279 33.582 197.066 32.1236 196.167 30.2011C195.279 28.2676 194.835 25.8972 194.835 23.0898C194.835 20.206 195.295 17.8083 196.216 15.8966C197.137 13.9741 198.361 12.5376 199.888 11.5873C201.426 10.626 203.11 10.1454 204.941 10.1454C206.338 10.1454 207.502 10.3857 208.434 10.8663C209.376 11.336 210.134 11.9259 210.708 12.6359C211.293 13.3351 211.737 14.0232 212.041 14.7005H212.252V2.08375H219.157V35.641H212.333V31.6102H212.041C211.716 32.3094 211.255 33.003 210.66 33.6912C210.075 34.3685 209.311 34.931 208.369 35.3789C207.437 35.8267 206.3 36.0507 204.957 36.0507ZM207.15 30.496C208.266 30.496 209.208 30.1902 209.977 29.5784C210.757 28.9558 211.353 28.0874 211.764 26.9732C212.187 25.859 212.398 24.5536 212.398 23.0571C212.398 21.5605 212.192 20.2606 211.781 19.1573C211.369 18.0541 210.773 17.202 209.994 16.6012C209.214 16.0004 208.266 15.7 207.15 15.7C206.013 15.7 205.054 16.0113 204.275 16.634C203.495 17.2566 202.904 18.1196 202.504 19.2229C202.103 20.3262 201.902 21.6042 201.902 23.0571C201.902 24.5208 202.103 25.8153 202.504 26.9404C202.915 28.0546 203.506 28.9285 204.275 29.5621C205.054 30.1847 206.013 30.496 207.15 30.496Z" fill="#494949"/>
<path d="M236.221 36.1326C233.653 36.1326 231.444 35.6083 229.592 34.5596C227.75 33.5 226.331 32.0035 225.335 30.07C224.338 28.1256 223.84 25.8262 223.84 23.1718C223.84 20.5829 224.338 18.3108 225.335 16.3554C226.331 14.4001 227.734 12.8763 229.543 11.7839C231.363 10.6915 233.496 10.1454 235.944 10.1454C237.591 10.1454 239.123 10.413 240.542 10.9483C241.972 11.4726 243.218 12.2645 244.279 13.3241C245.351 14.3837 246.185 15.7164 246.781 17.3222C247.377 18.917 247.675 20.785 247.675 22.926V24.8431H226.602V20.5173H241.16C241.16 19.5124 240.943 18.6221 240.51 17.8465C240.076 17.0709 239.475 16.4647 238.706 16.0277C237.948 15.5799 237.065 15.3559 236.058 15.3559C235.007 15.3559 234.076 15.6017 233.264 16.0933C232.462 16.5739 231.834 17.2239 231.379 18.0431C230.924 18.8515 230.691 19.7527 230.68 20.7467V24.8595C230.68 26.1047 230.908 27.1807 231.363 28.0874C231.828 28.994 232.484 29.6931 233.328 30.1847C234.173 30.6763 235.175 30.9221 236.334 30.9221C237.103 30.9221 237.807 30.8128 238.446 30.5943C239.085 30.3759 239.632 30.0482 240.087 29.6112C240.542 29.1743 240.889 28.639 241.127 28.0055L247.529 28.4315C247.204 29.9826 246.537 31.3372 245.53 32.4951C244.534 33.642 243.245 34.5378 241.663 35.1823C240.093 35.8158 238.278 36.1326 236.221 36.1326Z" fill="#494949"/>
<path d="M259.113 2.08375V35.641H252.191V2.08375H259.113Z" fill="#494949"/>
<path d="M264.657 35.641V10.4731H271.578V35.641H264.657ZM268.134 7.22876C267.105 7.22876 266.222 6.88467 265.486 6.19648C264.76 5.49737 264.397 4.66172 264.397 3.68952C264.397 2.72824 264.76 1.90351 265.486 1.21532C266.222 0.516212 267.105 0.166656 268.134 0.166656C269.163 0.166656 270.04 0.516212 270.766 1.21532C271.503 1.90351 271.871 2.72824 271.871 3.68952C271.871 4.66172 271.503 5.49737 270.766 6.19648C270.04 6.88467 269.163 7.22876 268.134 7.22876Z" fill="#494949"/>
<path d="M284.044 21.0908V35.641H277.123V10.4731H283.719V14.9135H284.011C284.564 13.4498 285.49 12.2919 286.79 11.4398C288.089 10.5768 289.665 10.1454 291.518 10.1454C293.251 10.1454 294.762 10.5277 296.051 11.2923C297.34 12.057 298.341 13.1494 299.056 14.5694C299.771 15.9786 300.129 17.6608 300.129 19.6161V35.641H293.207V20.8614C293.218 19.3212 292.828 18.1196 292.038 17.2566C291.247 16.3827 290.158 15.9458 288.772 15.9458C287.84 15.9458 287.017 16.1479 286.302 16.5521C285.598 16.9562 285.046 17.5461 284.645 18.3217C284.255 19.0863 284.055 20.0094 284.044 21.0908Z" fill="#494949"/>
<path d="M316.827 45.6034C314.584 45.6034 312.662 45.292 311.059 44.6694C309.467 44.0577 308.199 43.222 307.257 42.1624C306.315 41.1028 305.703 39.9122 305.421 38.5904L311.822 37.722C312.017 38.2245 312.326 38.6942 312.749 39.1311C313.171 39.5681 313.729 39.9176 314.422 40.1798C315.126 40.4529 315.982 40.5894 316.989 40.5894C318.495 40.5894 319.735 40.218 320.71 39.4752C321.695 38.7434 322.188 37.5144 322.188 35.7885V31.1842H321.896C321.592 31.8833 321.137 32.5442 320.531 33.1669C319.924 33.7895 319.145 34.2974 318.191 34.6907C317.238 35.0839 316.101 35.2806 314.779 35.2806C312.906 35.2806 311.2 34.8436 309.662 33.9697C308.134 33.0849 306.916 31.7359 306.006 29.9225C305.107 28.0983 304.657 25.7934 304.657 23.0079C304.657 20.1568 305.118 17.7755 306.038 15.8639C306.959 13.9522 308.183 12.5212 309.71 11.5709C311.248 10.6205 312.933 10.1454 314.763 10.1454C316.16 10.1454 317.33 10.3857 318.273 10.8663C319.215 11.336 319.973 11.9259 320.547 12.6359C321.132 13.3351 321.582 14.0232 321.896 14.7005H322.156V10.4731H329.028V35.8868C329.028 38.0279 328.508 39.8193 327.468 41.2612C326.429 42.7032 324.988 43.7846 323.147 44.5056C321.316 45.2374 319.21 45.6034 316.827 45.6034ZM316.973 30.0372C318.088 30.0372 319.031 29.7587 319.8 29.2016C320.58 28.6336 321.175 27.8252 321.587 26.7765C322.009 25.717 322.221 24.4498 322.221 22.9751C322.221 21.5004 322.015 20.2224 321.603 19.141C321.192 18.0486 320.596 17.202 319.816 16.6012C319.036 16.0004 318.088 15.7 316.973 15.7C315.836 15.7 314.877 16.0113 314.097 16.634C313.317 17.2457 312.727 18.0977 312.326 19.1901C311.925 20.2825 311.725 21.5441 311.725 22.9751C311.725 24.428 311.925 25.6842 312.326 26.7438C312.738 27.7924 313.328 28.6063 314.097 29.1852C314.877 29.7532 315.836 30.0372 316.973 30.0372Z" fill="#494949"/>
</svg>
