<svg width="67" height="67" viewBox="0 0 67 67" fill="none" xmlns="http://www.w3.org/2000/svg">
<path fill-rule="evenodd" clip-rule="evenodd" d="M31.6772 0.0566321C28.8404 0.262004 24.9005 3.83684 24.9005 6.20558C24.9005 6.5705 24.7491 6.96359 24.564 7.07901C24.3728 7.19816 24.2274 8.89613 24.2274 11.0127C24.2274 14.489 24.159 14.8723 23.2007 16.7872C22.1701 18.846 18.8025 22.5244 17.9479 22.5244C17.6991 22.5244 17.4955 22.6771 17.4955 22.8638C17.4955 23.0505 17.1925 23.2033 16.8223 23.2033C16.452 23.2033 16.1491 23.3394 16.1491 23.5057C16.1491 23.9243 14.2682 24.2257 9.92212 24.5031C6.88941 24.6969 5.9456 24.8924 4.70491 25.5839C3.08724 26.4855 1.35311 28.1909 1.34436 28.8892C1.34133 29.1228 1.22453 29.3135 1.08417 29.3135C0.281393 29.3135 -0.417713 35.1278 0.329189 35.5935C0.514316 35.7089 0.665783 36.176 0.665783 36.6319C0.665783 37.0878 0.81725 37.4605 1.00238 37.4605C1.1875 37.4605 1.33897 37.7046 1.33897 38.003C1.33897 38.6001 3.51842 40.7271 4.45247 41.0418C4.77661 41.1511 5.0415 41.3653 5.0415 41.5184C5.0415 42.2079 9.94703 42.5769 11.9356 42.0368C12.488 41.8867 13.1046 41.5979 13.3066 41.3945C13.5082 41.1912 14.2292 40.643 14.9088 40.1762C15.5883 39.7095 16.1454 39.1982 16.1468 39.0404C16.1481 38.8825 16.4379 38.3442 16.7913 37.8441C17.6126 36.6808 18.1616 33.6739 17.9283 31.6154C17.5578 28.3434 19.0122 24.7356 21.8843 21.8017C23.704 19.9435 26.8663 18.1114 28.2547 18.1114C28.6071 18.1114 29.2867 17.9614 29.7643 17.7784C30.2524 17.5914 31.178 17.5595 31.8771 17.7061C33.4877 18.0435 36.6255 17.3907 38.2701 16.3761C39.6619 15.5169 40.3839 14.8896 40.3839 14.5389C40.3839 14.4144 40.7131 13.8461 41.1156 13.2762C42.1409 11.824 42.3923 7.52676 41.5778 5.37595C41.2607 4.53884 40.8625 3.85415 40.6925 3.85415C40.5229 3.85415 40.3839 3.68103 40.3839 3.46955C40.3839 3.01094 39.3169 2.02549 37.6719 0.965702C36.443 0.173745 34.3807 -0.138896 31.6772 0.0566321ZM6.58311 0.415779C6.48347 0.57838 5.98229 0.79801 5.46932 0.903581C4.34105 1.13611 0.665783 4.4869 0.665783 5.28293C0.665783 5.59524 0.514316 5.94522 0.329189 6.06063C-0.10973 6.33424 -0.10973 11.8973 0.329189 12.1709C0.514316 12.2863 0.665783 12.677 0.665783 13.0396C0.665783 13.4021 0.81725 13.6985 1.00238 13.6985C1.1875 13.6985 1.33897 13.9384 1.33897 14.2317C1.33897 14.8346 1.66648 15.1989 3.39017 16.5112C4.05562 17.018 4.85099 17.4325 5.15729 17.4325C5.46393 17.4325 5.71469 17.5852 5.71469 17.772C5.71469 17.9732 6.94898 18.1114 8.74404 18.1114C10.4102 18.1114 11.7734 17.9777 11.7734 17.8144C11.7734 17.6511 12.1898 17.4254 12.699 17.3133C13.9178 17.0445 15.7809 15.2562 16.793 13.3841C17.9522 11.2394 17.9734 7.63878 16.8398 5.41566C15.8394 3.45427 13.4537 1.18873 12.1009 0.916141C11.5428 0.803441 11.0046 0.57838 10.905 0.415779C10.8053 0.253179 9.83292 0.120111 8.74404 0.120111C7.65516 0.120111 6.68274 0.253179 6.58311 0.415779ZM53.7806 0.830598C50.2104 2.65553 47.4059 8.29359 48.7704 10.9027C48.9401 11.2269 49.3215 12.0555 49.618 12.7442C50.892 15.7033 54.5804 18.1114 57.8383 18.1114C60.7572 18.1114 64.5035 15.6463 65.8125 12.8641C66.6295 11.1277 66.6298 7.11669 65.8132 5.33453C65.0182 3.59922 63.0831 1.57978 61.4419 0.77221C59.6546 -0.107326 55.5542 -0.0760959 53.7806 0.830598ZM30.6226 24.96C29.9747 25.146 29.2056 25.514 28.9131 25.7781C28.6209 26.0422 28.2628 26.2584 28.117 26.2584C27.696 26.2584 25.5737 28.7212 25.5737 29.21C25.5737 29.4537 25.4223 29.653 25.2371 29.653C25.052 29.653 24.9005 30.0257 24.9005 30.4816C24.9005 30.9375 24.7491 31.4046 24.564 31.52C24.3724 31.6395 24.226 33.366 24.224 35.5287C24.22 40.3921 23.5151 42.1726 20.3168 45.3978C18.716 47.0122 17.8738 47.6443 17.3235 47.6443C17.0478 47.6443 16.8223 47.7597 16.8223 47.9013C16.8223 48.5008 13.7206 49.1237 10.427 49.1858C7.55351 49.2398 6.59287 49.3949 5.28756 50.0161C1.09292 52.0128 -0.903082 56.496 0.413337 60.964C0.891301 62.5862 4.17343 66.3145 5.12363 66.3145C5.44878 66.3145 5.71469 66.4673 5.71469 66.654C5.71469 66.8576 7.06107 66.9934 9.08063 66.9934C11.1002 66.9934 12.4466 66.8576 12.4466 66.654C12.4466 66.4673 12.6216 66.3145 12.8357 66.3145C13.5176 66.3145 15.4248 64.6447 16.4335 63.1643C17.5503 61.5251 17.9711 59.5953 17.8755 56.5503C17.7728 53.2847 18.9873 49.5565 20.7429 47.7485C21.1405 47.3391 21.5191 46.8795 21.5844 46.7274C21.8056 46.2121 24.4132 44.3111 25.5855 43.8104C28.0093 42.7761 29.253 42.5524 32.582 42.5524C34.6416 42.5524 36.0081 42.417 36.0081 42.213C36.0081 42.0263 36.2407 41.8735 36.5248 41.8735C37.6359 41.8735 39.5528 40.3035 41.0409 38.1737C42.1254 36.6221 42.4233 32.3897 41.601 30.2179C41.0537 28.7728 39.0658 26.2584 38.4703 26.2584C38.301 26.2584 37.9853 26.0799 37.7692 25.8619C36.6305 24.7135 33.0559 24.2624 30.6226 24.96ZM55.5306 24.7926C52.9496 25.7014 51.3414 27.05 50.0434 29.3943C49.3278 30.6873 49.1552 31.519 49.0279 34.291C48.8458 38.2552 48.621 39.5238 47.759 41.4478C47.0804 42.9635 46.1363 44.2263 44.799 45.4079C44.3577 45.7976 43.8074 46.3007 43.5761 46.5258C41.7733 48.2774 38.1415 49.3097 33.9583 49.2594C31.9249 49.2347 31.0663 49.3915 29.7509 50.0276C28.0824 50.8345 25.5737 53.2253 25.5737 54.0091C25.5737 54.2424 25.4223 54.4335 25.2371 54.4335C25.052 54.4335 24.9005 54.8938 24.9005 55.4566C24.9005 56.0191 24.7164 56.7768 24.4916 57.14C24.1705 57.6587 24.1705 58.0463 24.4916 58.9418C24.7164 59.5691 24.9005 60.4222 24.9005 60.8367C24.9005 61.7274 25.1752 62.1147 27.5021 64.5059C28.4701 65.5005 29.4924 66.3145 29.7741 66.3145C30.0555 66.3145 30.2861 66.4673 30.2861 66.654C30.2861 67.1503 36.028 67.079 37.1166 66.5691C37.6147 66.3359 38.0237 66.03 38.025 65.8902C38.0264 65.7503 38.2064 65.6356 38.4246 65.6356C39.0042 65.6356 40.8864 63.4586 41.5808 61.9854C42.0019 61.0916 42.2516 59.4184 42.4213 56.3565C42.5549 53.9389 42.8296 51.8312 43.0379 51.6211C43.2442 51.413 43.4132 50.9676 43.4132 50.6315C43.4132 50.2955 43.5647 50.0205 43.7498 50.0205C43.9349 50.0205 44.0864 49.7931 44.0864 49.5151C44.0864 47.9916 49.0589 43.7561 51.6598 43.0643C52.2151 42.9163 54.3357 42.7317 56.3721 42.6532C58.4085 42.5748 60.2187 42.3674 60.3944 42.1922C60.5704 42.0168 60.9215 41.8735 61.1753 41.8735C62.0134 41.8735 64.6082 39.8239 65.17 38.7176C65.4739 38.1194 65.8243 37.5539 65.9485 37.4605C66.0731 37.3672 66.3605 36.4361 66.5874 35.3912C67.784 29.8811 63.278 24.4956 57.5502 24.59C56.7171 24.6035 55.8083 24.6949 55.5306 24.7926ZM55.194 49.5683C54.3609 49.8732 53.6288 50.2524 53.5672 50.4109C53.5053 50.5697 53.2687 50.6994 53.0412 50.6994C51.6012 50.6994 49.1437 55.3429 49.1387 58.0728C49.1326 61.222 51.2875 64.8867 53.8059 66.011C54.3842 66.269 54.8574 66.5956 54.8574 66.7368C54.8574 67.1761 60.8653 67.0281 61.661 66.5691C62.9444 65.8288 64.8071 64.1552 65.7967 62.8534C66.4901 61.9416 66.9745 59.9218 66.9674 57.9737C66.96 55.9121 66.0407 53.6089 64.4503 51.6665C62.7384 49.5758 58.0685 48.5174 55.194 49.5683Z" fill="#1C4679"/>
</svg>
